<svg width="768" height="826" viewBox="0 0 768 826" fill="none" xmlns="http://www.w3.org/2000/svg">
<path d="M351.374 1.32494C127.421 14.8393 9.65314 142.261 0 372.005H225.883C227.814 292.85 274.149 233 355.235 223.347C436.322 215.625 513.547 234.931 536.714 288.988C561.813 348.838 505.824 418.341 478.796 447.3C428.599 501.358 347.513 541.901 305.039 599.819C264.496 657.738 256.773 733.033 252.912 825.703H451.767C453.697 765.853 457.559 709.865 484.587 673.183C528.992 613.334 594.633 586.305 648.691 538.039C700.818 493.635 756.806 439.577 764.528 354.63C797.349 105.579 592.703 -14.1201 351.374 1.32494Z" fill="#131316" fill-opacity="0.03"/>
</svg>
